<svg width="16" height="16" viewBox="0 0 16 16" fill="none" xmlns="http://www.w3.org/2000/svg">
<path d="M14.1381 2.98637C14.7155 3.56378 14.725 4.49698 14.1594 5.08597L8.74248 10.7271C8.46719 11.0137 8.08938 11.1795 7.69201 11.1878L5.41668 11.2355L5.46474 8.94497C5.47289 8.55664 5.63135 8.1866 5.90679 7.91274L11.4438 2.40735C12.0301 1.82442 12.9775 1.82578 13.5621 2.41038L14.1381 2.98637Z" fill="#3699FF"/>
<path opacity="0.3" d="M8.59992 1.33325C8.96811 1.33325 9.26659 1.63173 9.26659 1.99992C9.26659 2.36811 8.96811 2.66659 8.59992 2.66659H3.99992C3.26354 2.66659 2.66659 3.26354 2.66659 3.99992V11.9999C2.66659 12.7363 3.26354 13.3333 3.99992 13.3333H11.9999C12.7363 13.3333 13.3333 12.7363 13.3333 11.9999V8.66659C13.3333 8.2984 13.6317 7.99992 13.9999 7.99992C14.3681 7.99992 14.6666 8.2984 14.6666 8.66659V11.9999C14.6666 13.4727 13.4727 14.6666 11.9999 14.6666H3.99992C2.52716 14.6666 1.33325 13.4727 1.33325 11.9999V3.99992C1.33325 2.52716 2.52716 1.33325 3.99992 1.33325H8.59992Z" fill="#3699FF"/>
</svg>
